<svg width="1920" height="554" viewBox="0 0 1920 554" fill="none" xmlns="http://www.w3.org/2000/svg">
<path d="M1920 0H0V554H1920V0Z" fill="#1A73E7"/>
<path opacity="0.2" d="M1920 331.867H0V357.01H1920V331.867Z" fill="#F4F6F8"/>
<path opacity="0.2" d="M1920 509.467H0V524.808H1920V509.467Z" fill="#F4F6F8"/>
<path opacity="0.2" d="M1920 374.589H0V462.377H1920V374.589Z" fill="#F4F6F8"/>
<path opacity="0.2" d="M1278.72 509.467C1278.72 499.346 1286.93 491.249 1296.96 491.249C1306.99 491.249 1315.2 499.452 1315.2 509.467H1278.72Z" fill="#F4F6F8"/>
<path opacity="0.2" d="M851.309 509.467C851.309 487.946 868.695 470.581 890.242 470.581C911.789 470.581 929.175 487.946 929.175 509.467H851.309Z" fill="#F4F6F8"/>
<path opacity="0.2" d="M929.172 509.467C929.172 499.559 937.172 491.568 947.092 491.568C957.012 491.568 965.012 499.559 965.012 509.467H929.172Z" fill="#F4F6F8"/>
<path opacity="0.2" d="M1315.2 509.467C1315.2 503.714 1319.89 499.026 1325.65 499.026C1331.41 499.026 1336.11 503.714 1336.11 509.467H1315.2Z" fill="#F4F6F8"/>
<path opacity="0.2" d="M1060.91 331.867C1060.91 308.748 1079.68 289.891 1102.93 289.891C1126.08 289.891 1144.96 308.642 1144.96 331.867H1060.91Z" fill="#F4F6F8"/>
<path opacity="0.2" d="M1321.71 331.867C1321.71 315.78 1334.72 302.782 1350.83 302.782C1366.93 302.782 1379.95 315.78 1379.95 331.867H1321.71Z" fill="#F4F6F8"/>
<path opacity="0.2" d="M1144.85 331.867C1144.85 283.073 1184.42 243.547 1233.28 243.547C1282.13 243.547 1321.7 283.073 1321.7 331.867H1144.85Z" fill="#F4F6F8"/>
<path opacity="0.2" d="M193.922 331.867C193.922 229.59 276.909 146.597 379.415 146.597C481.922 146.597 564.908 229.484 564.908 331.867H193.922Z" fill="#F4F6F8"/>
<path d="M655.04 463.868C594.773 463.868 539.627 485.496 496.747 521.293C472.64 492.314 436.373 473.777 395.627 473.777C369.387 473.777 344.96 481.447 324.48 494.658C294.293 363.296 176.427 265.281 35.6267 265.281C23.5733 265.281 11.6267 266.027 0 267.412V554H845.76C800.533 499.026 731.947 463.868 655.04 463.868Z" fill="#F4F6F8"/>
<path d="M1532.37 202.351H1561.52C1571.39 202.351 1579.43 194.322 1579.43 184.464C1579.43 174.607 1571.39 166.577 1561.52 166.577H1532.37C1522.5 166.577 1514.46 174.607 1514.46 184.464C1514.46 194.322 1522.44 202.351 1532.37 202.351Z" fill="#1C427B"/>
<path d="M1564.79 200.505C1573.69 199.227 1579.87 190.988 1578.59 182.103C1577.31 173.217 1569.06 167.049 1560.16 168.327C1551.27 169.604 1545.09 177.843 1546.37 186.729C1547.65 195.615 1555.9 201.782 1564.79 200.505Z" fill="#F4F6F8"/>
<path d="M1549.95 184.399C1549.95 191.318 1555.57 196.933 1562.5 196.933C1562.7 196.933 1562.89 196.933 1563.16 196.933C1569.82 196.606 1575.05 191.123 1575.05 184.399C1575.05 177.675 1569.76 172.191 1563.16 171.865C1562.96 171.865 1562.76 171.865 1562.5 171.865C1555.57 171.865 1549.95 177.479 1549.95 184.399Z" fill="#1C427B"/>
<path d="M1563.09 171.93V196.933C1569.76 196.606 1574.99 191.123 1574.99 184.399C1575.05 177.74 1569.76 172.257 1563.09 171.93Z" fill="#1C427B"/>
<path d="M1562.5 190.209C1565.72 190.209 1568.32 187.608 1568.32 184.399C1568.32 181.19 1565.72 178.589 1562.5 178.589C1559.29 178.589 1556.69 181.19 1556.69 184.399C1556.69 187.608 1559.29 190.209 1562.5 190.209Z" fill="#1C427B"/>
<path d="M1288.45 43H1294.53L1322.76 112.198H1288.45V43Z" fill="#F4F6F8"/>
<path d="M1277.54 116.245C1277.54 117.943 1277.73 119.64 1278.12 121.337C1281.46 136.743 1299.37 151.758 1320.8 163.182C1344.59 175.912 1372.63 184.399 1389.82 184.399H1616.69C1656.62 184.399 1676.23 170.298 1680.21 161.942C1680.74 160.832 1681 159.788 1681 158.939C1680.93 156.328 1677.86 149.408 1670.41 143.663C1668.32 140.921 1664.92 138.767 1662.76 135.177C1655.51 123.034 1630.35 112.198 1600.67 112.198H1287.6C1282.04 112.198 1277.54 110.696 1277.54 116.245Z" fill="#F4F6F8"/>
<path d="M1277.99 121.337C1278.78 125.058 1280.48 128.779 1282.83 132.435C1285.12 135.96 1288.12 139.485 1291.59 142.88C1296.03 147.123 1301.26 151.236 1307.08 155.087C1311.33 157.96 1315.97 160.636 1320.67 163.182C1344.46 175.912 1372.5 184.398 1389.69 184.398H1616.55C1656.49 184.398 1682.83 171.538 1680.87 158.939C1680.87 158.939 1661 165.206 1639.5 152.868C1623.87 143.924 1620.48 121.337 1562.18 121.337C1478.19 121.337 1277.99 121.337 1277.99 121.337Z" fill="#ECECEC"/>
<path opacity="0.6" d="M1301.2 140.464H1593.29C1593.74 140.464 1594.14 140.073 1594.14 139.616C1594.14 139.159 1593.74 138.767 1593.29 138.767H1301.2V140.464Z" fill="#F4F6F8"/>
<path opacity="0.6" d="M1298.71 148.233H1591.2C1593.03 148.233 1594.53 146.731 1594.53 144.904C1594.53 143.076 1593.03 141.574 1591.2 141.574H1295.71L1298.71 148.233Z" fill="#F4F6F8"/>
<path d="M1309.82 158.221H1497.99V155.61C1497.99 152.607 1495.58 150.191 1492.57 150.191H1309.82V158.221Z" fill="#30C1FF"/>
<path d="M1285.96 43H1292.04L1320.28 112.198H1285.96V43Z" fill="#30C1FF"/>
<path d="M1234.53 132.435H1323.61V128.91H1230.93C1230.93 130.868 1232.57 132.435 1234.53 132.435Z" fill="#30C1FF"/>
<path d="M1629.04 135.242C1629.04 137.592 1630.02 139.681 1631.52 141.248C1633.09 142.814 1635.18 143.728 1637.54 143.728H1670.35C1668.25 140.986 1665.71 138.114 1662.7 135.242H1629.04Z" fill="#1C427B"/>
<path d="M1657.89 132.242L1656.33 133.53L1669 148.899L1670.56 147.611L1657.89 132.242Z" fill="#F4F6F8"/>
<path d="M1644.08 133.266L1642.14 133.859L1646.64 148.529L1648.58 147.936L1644.08 133.266Z" fill="#F4F6F8"/>
<path d="M1635.16 133.014L1633.19 133.483L1636.69 148.153L1638.66 147.684L1635.16 133.014Z" fill="#F4F6F8"/>
<path d="M1323.61 128.909C1323.61 128.909 1309.43 126.233 1278.06 126.233L1230.93 128.909H1323.61Z" fill="#F4F6F8"/>
<path d="M1667.8 140.53H1644.01L1637.54 143.729L1671.39 144.512L1667.8 140.53Z" fill="#F4F6F8"/>
<path d="M1582.57 146.535C1583.61 146.535 1584.4 145.687 1584.4 144.707V141.117C1584.4 140.072 1583.55 139.289 1582.57 139.289C1581.52 139.289 1580.74 140.138 1580.74 141.117V144.707C1580.74 145.687 1581.52 146.535 1582.57 146.535Z" fill="#1C427B"/>
<path d="M1561.98 146.535C1563.02 146.535 1563.81 145.687 1563.81 144.707V141.117C1563.81 140.072 1562.96 139.289 1561.98 139.289C1560.93 139.289 1560.15 140.138 1560.15 141.117V144.707C1560.08 145.687 1560.93 146.535 1561.98 146.535Z" fill="#1C427B"/>
<path d="M1555.77 146.535C1556.82 146.535 1557.6 145.687 1557.6 144.707V141.117C1557.6 140.072 1556.75 139.289 1555.77 139.289C1554.73 139.289 1553.94 140.138 1553.94 141.117V144.707C1553.88 145.687 1554.73 146.535 1555.77 146.535Z" fill="#1C427B"/>
<path d="M1549.56 146.535C1550.61 146.535 1551.39 145.687 1551.39 144.707V141.117C1551.39 140.072 1550.54 139.289 1549.56 139.289C1548.51 139.289 1547.73 140.138 1547.73 141.117V144.707C1547.66 145.687 1548.51 146.535 1549.56 146.535Z" fill="#1C427B"/>
<path d="M1543.35 146.535C1544.4 146.535 1545.18 145.687 1545.18 144.707V141.117C1545.18 140.072 1544.33 139.289 1543.35 139.289C1542.31 139.289 1541.52 140.138 1541.52 141.117V144.707C1541.46 145.687 1542.31 146.535 1543.35 146.535Z" fill="#1C427B"/>
<path d="M1539.1 146.535C1540.15 146.535 1540.93 145.687 1540.93 144.707V141.117C1540.93 140.072 1540.08 139.289 1539.1 139.289C1538.06 139.289 1537.27 140.138 1537.27 141.117V144.707C1537.27 145.687 1538.12 146.535 1539.1 146.535Z" fill="#1C427B"/>
<path d="M1532.9 146.535C1533.94 146.535 1534.73 145.687 1534.73 144.707V141.117C1534.73 140.072 1533.88 139.289 1532.9 139.289C1531.85 139.289 1531.07 140.138 1531.07 141.117V144.707C1531.07 145.687 1531.92 146.535 1532.9 146.535Z" fill="#1C427B"/>
<path d="M1526.69 146.535C1527.73 146.535 1528.52 145.687 1528.52 144.707V141.117C1528.52 140.072 1527.67 139.289 1526.69 139.289C1525.64 139.289 1524.86 140.138 1524.86 141.117V144.707C1524.86 145.687 1525.71 146.535 1526.69 146.535Z" fill="#1C427B"/>
<path d="M1520.54 146.535C1521.59 146.535 1522.37 145.687 1522.37 144.707V141.117C1522.37 140.072 1521.52 139.289 1520.54 139.289C1519.5 139.289 1518.71 140.138 1518.71 141.117V144.707C1518.65 145.687 1519.5 146.535 1520.54 146.535Z" fill="#1C427B"/>
<path d="M1514.33 146.535C1515.38 146.535 1516.16 145.687 1516.16 144.707V141.117C1516.16 140.072 1515.31 139.289 1514.33 139.289C1513.29 139.289 1512.5 140.138 1512.5 141.117V144.707C1512.44 145.687 1513.29 146.535 1514.33 146.535Z" fill="#1C427B"/>
<path d="M1490.67 152.672H1488.26C1485.9 152.672 1484.01 150.779 1484.01 148.429V137.592C1484.01 135.242 1485.9 133.349 1488.26 133.349H1490.67C1493.03 133.349 1494.92 135.242 1494.92 137.592H1493.94C1493.94 135.764 1492.44 134.328 1490.67 134.328H1488.26C1486.43 134.328 1484.99 135.764 1484.99 137.592V148.429C1484.99 150.256 1486.49 151.693 1488.26 151.693H1490.67C1492.5 151.693 1493.94 150.256 1493.94 148.429H1494.92C1494.99 150.713 1493.03 152.672 1490.67 152.672Z" fill="#1C427B"/>
<path d="M1397.6 152.541H1395.19C1392.83 152.541 1390.94 150.648 1390.94 148.298V137.462C1390.94 135.111 1392.83 133.218 1395.19 133.218H1397.6C1399.96 133.218 1401.85 135.111 1401.85 137.462H1400.87C1400.87 135.634 1399.37 134.197 1397.6 134.197H1395.19C1393.36 134.197 1391.92 135.634 1391.92 137.462V148.298C1391.92 150.126 1393.42 151.562 1395.19 151.562H1397.6C1399.43 151.562 1400.87 150.126 1400.87 148.298H1401.85C1401.85 150.648 1399.96 152.541 1397.6 152.541Z" fill="#1C427B"/>
<path d="M1489.5 146.535C1490.54 146.535 1491.33 145.687 1491.33 144.707V141.117C1491.33 140.072 1490.48 139.289 1489.5 139.289C1488.45 139.289 1487.67 140.138 1487.67 141.117V144.707C1487.6 145.687 1488.45 146.535 1489.5 146.535Z" fill="#1C427B"/>
<path d="M1470.87 146.535C1471.91 146.535 1472.7 145.687 1472.7 144.707V141.117C1472.7 140.072 1471.85 139.289 1470.87 139.289C1469.82 139.289 1469.04 140.138 1469.04 141.117V144.707C1468.97 145.687 1469.82 146.535 1470.87 146.535Z" fill="#1C427B"/>
<path d="M1464.66 146.535C1465.71 146.535 1466.49 145.687 1466.49 144.707V141.117C1466.49 140.072 1465.64 139.289 1464.66 139.289C1463.62 139.289 1462.83 140.138 1462.83 141.117V144.707C1462.77 145.687 1463.62 146.535 1464.66 146.535Z" fill="#1C427B"/>
<path d="M1458.45 146.535C1459.5 146.535 1460.28 145.687 1460.28 144.707V141.117C1460.28 140.072 1459.43 139.289 1458.45 139.289C1457.41 139.289 1456.62 140.138 1456.62 141.117V144.707C1456.56 145.687 1457.41 146.535 1458.45 146.535Z" fill="#1C427B"/>
<path d="M1452.24 146.535C1453.29 146.535 1454.07 145.687 1454.07 144.707V141.117C1454.07 140.072 1453.22 139.289 1452.24 139.289C1451.19 139.289 1450.41 140.138 1450.41 141.117V144.707C1450.34 145.687 1451.19 146.535 1452.24 146.535Z" fill="#1C427B"/>
<path d="M1446.03 146.535C1447.08 146.535 1447.86 145.687 1447.86 144.707V141.117C1447.86 140.072 1447.01 139.289 1446.03 139.289C1444.99 139.289 1444.2 140.138 1444.2 141.117V144.707C1444.2 145.687 1444.99 146.535 1446.03 146.535Z" fill="#1C427B"/>
<path d="M1439.83 146.535C1440.87 146.535 1441.66 145.687 1441.66 144.707V141.117C1441.66 140.072 1440.81 139.289 1439.83 139.289C1438.78 139.289 1438 140.138 1438 141.117V144.707C1438 145.687 1438.78 146.535 1439.83 146.535Z" fill="#1C427B"/>
<path d="M1433.62 146.535C1434.66 146.535 1435.45 145.687 1435.45 144.707V141.117C1435.45 140.072 1434.6 139.289 1433.62 139.289C1432.57 139.289 1431.79 140.138 1431.79 141.117V144.707C1431.79 145.687 1432.57 146.535 1433.62 146.535Z" fill="#1C427B"/>
<path d="M1427.4 146.535C1428.45 146.535 1429.23 145.687 1429.23 144.707V141.117C1429.23 140.072 1428.38 139.289 1427.4 139.289C1426.36 139.289 1425.57 140.138 1425.57 141.117V144.707C1425.57 145.687 1426.36 146.535 1427.4 146.535Z" fill="#1C427B"/>
<path d="M1421.2 146.535C1422.24 146.535 1423.03 145.687 1423.03 144.707V141.117C1423.03 140.072 1422.18 139.289 1421.2 139.289C1420.15 139.289 1419.37 140.138 1419.37 141.117V144.707C1419.37 145.687 1420.15 146.535 1421.2 146.535Z" fill="#1C427B"/>
<path d="M1414.99 146.535C1416.03 146.535 1416.82 145.687 1416.82 144.707V141.117C1416.82 140.072 1415.97 139.289 1414.99 139.289C1413.94 139.289 1413.16 140.138 1413.16 141.117V144.707C1413.16 145.687 1413.94 146.535 1414.99 146.535Z" fill="#1C427B"/>
<path d="M1396.36 146.535C1397.41 146.535 1398.19 145.687 1398.19 144.707V141.117C1398.19 140.072 1397.34 139.289 1396.36 139.289C1395.32 139.289 1394.53 140.138 1394.53 141.117V144.707C1394.53 145.687 1395.38 146.535 1396.36 146.535Z" fill="#1C427B"/>
<path d="M1377.73 146.535C1378.78 146.535 1379.56 145.687 1379.56 144.707V141.117C1379.56 140.072 1378.71 139.289 1377.73 139.289C1376.69 139.289 1375.9 140.138 1375.9 141.117V144.707C1375.9 145.687 1376.75 146.535 1377.73 146.535Z" fill="#1C427B"/>
<path d="M1371.52 146.535C1372.57 146.535 1373.35 145.687 1373.35 144.707V141.117C1373.35 140.072 1372.5 139.289 1371.52 139.289C1370.48 139.289 1369.69 140.138 1369.69 141.117V144.707C1369.69 145.687 1370.54 146.535 1371.52 146.535Z" fill="#1C427B"/>
<path d="M1365.38 146.535C1366.43 146.535 1367.21 145.687 1367.21 144.707V141.117C1367.21 140.072 1366.36 139.289 1365.38 139.289C1364.33 139.289 1363.55 140.138 1363.55 141.117V144.707C1363.49 145.687 1364.33 146.535 1365.38 146.535Z" fill="#1C427B"/>
<path d="M1359.17 146.535C1360.22 146.535 1361 145.687 1361 144.707V141.117C1361 140.072 1360.15 139.289 1359.17 139.289C1358.12 139.289 1357.34 140.138 1357.34 141.117V144.707C1357.27 145.687 1358.12 146.535 1359.17 146.535Z" fill="#1C427B"/>
<path d="M1352.96 146.535C1354.01 146.535 1354.79 145.687 1354.79 144.707V141.117C1354.79 140.072 1353.94 139.289 1352.96 139.289C1351.92 139.289 1351.13 140.138 1351.13 141.117V144.707C1351.07 145.687 1351.92 146.535 1352.96 146.535Z" fill="#1C427B"/>
<path d="M1346.75 146.535C1347.8 146.535 1348.58 145.687 1348.58 144.707V141.117C1348.58 140.072 1347.73 139.289 1346.75 139.289C1345.71 139.289 1344.92 140.138 1344.92 141.117V144.707C1344.86 145.687 1345.71 146.535 1346.75 146.535Z" fill="#1C427B"/>
<path d="M1340.54 146.535C1341.59 146.535 1342.37 145.687 1342.37 144.707V141.117C1342.37 140.072 1341.52 139.289 1340.54 139.289C1339.49 139.289 1338.71 140.138 1338.71 141.117V144.707C1338.65 145.687 1339.49 146.535 1340.54 146.535Z" fill="#1C427B"/>
<path d="M1334.33 146.535C1335.38 146.535 1336.16 145.687 1336.16 144.707V141.117C1336.16 140.072 1335.31 139.289 1334.33 139.289C1333.29 139.289 1332.5 140.138 1332.5 141.117V144.707C1332.44 145.687 1333.29 146.535 1334.33 146.535Z" fill="#1C427B"/>
<path d="M1307.14 155.087C1310.15 157.111 1313.29 159.004 1316.56 160.897C1317.93 161.681 1319.37 162.464 1320.74 163.248C1344.53 175.977 1372.57 184.464 1389.76 184.464H1600.74C1600.74 184.464 1599.95 155.153 1513.68 155.153H1307.14V155.087Z" fill="#30C1FF"/>
<path d="M1316.55 160.897C1317.93 161.68 1319.37 162.464 1320.74 163.247C1344.53 175.977 1372.57 184.463 1389.76 184.463H1589.3C1589.3 184.463 1588.58 160.962 1505.64 160.962H1316.55V160.897Z" fill="#E2E2E2"/>
<path d="M1285.84 136.417C1285.9 136.482 1285.97 136.548 1286.03 136.613C1286.1 136.678 1286.16 136.743 1286.23 136.874C1286.75 137.527 1287.27 138.114 1287.86 138.767C1287.99 138.898 1288.12 139.028 1288.25 139.159C1289.43 140.464 1290.67 141.705 1291.98 143.01C1292.11 143.141 1292.24 143.206 1292.31 143.337C1292.96 143.99 1293.68 144.577 1294.4 145.23L1294.46 145.295C1295.18 145.883 1295.9 146.536 1296.62 147.123C1296.69 147.188 1296.82 147.254 1296.88 147.319C1297.67 147.972 1298.45 148.559 1299.23 149.212C1299.3 149.277 1299.37 149.277 1299.37 149.343C1300.15 149.995 1301 150.583 1301.78 151.236C1301.78 151.236 1301.78 151.236 1301.85 151.301C1302.7 151.954 1303.55 152.541 1304.46 153.194C1304.53 153.194 1304.59 153.259 1304.59 153.325C1309.63 156.85 1315.12 160.179 1320.87 163.313C1344.53 175.977 1372.63 184.398 1389.82 184.398H1616.69C1651.78 184.398 1676.36 174.476 1680.41 163.574C1668.45 166.968 1652.89 169.057 1634.86 169.057H1382.89C1363.81 169.057 1332.63 160.571 1306.23 147.841C1299.82 144.773 1293.74 141.378 1288.12 137.853C1288.06 137.788 1287.99 137.788 1287.93 137.723C1287.27 137.331 1286.55 136.874 1285.84 136.417Z" fill="#1C427B"/>
<path d="M1161 160.897H1494.66V159.983C1494.66 157.307 1492.5 155.087 1489.76 155.087H1166.75C1163.55 155.087 1161 157.699 1161 160.897Z" fill="#F4F6F8"/>
<path d="M1199.43 155.087H1349.04C1352.24 155.087 1354.79 157.633 1354.79 160.832H1199.43V155.087Z" fill="#ECECEC"/>
<path d="M1386.23 187.727H1405.12V160.897H1361.98V163.443C1361.98 176.891 1372.83 187.727 1386.23 187.727Z" fill="#1C427B"/>
<path d="M1494.59 160.897H1161L1489.69 165.793C1492.37 165.793 1494.59 163.639 1494.59 160.897Z" fill="#1C427B"/>
<path d="M1396.36 174.345H1481.13C1488.52 174.345 1494.53 168.339 1494.53 160.897H1396.36V174.345Z" fill="#1C427B"/>
<path d="M1209.3 160.897H1161C1161 157.699 1163.61 155.087 1166.82 155.087H1203.55C1206.69 155.087 1209.3 157.699 1209.3 160.897Z" fill="#30C1FF"/>
<path d="M1392.24 202.351H1421.39C1431.26 202.351 1439.3 194.321 1439.3 184.464C1439.3 174.606 1431.26 166.577 1421.39 166.577H1392.24C1382.38 166.577 1374.34 174.606 1374.34 184.464C1374.34 194.321 1382.38 202.351 1392.24 202.351Z" fill="#30C1FF"/>
<path d="M1374.34 184.398C1374.34 185.769 1374.47 187.075 1374.79 188.38C1376.62 180.416 1383.75 174.475 1392.24 174.475H1421.39C1426.36 174.475 1430.81 176.499 1434.07 179.698C1436.43 182.048 1438.13 184.986 1438.85 188.315C1439.17 187.009 1439.3 185.704 1439.3 184.333C1439.3 179.371 1437.28 174.932 1434.07 171.668C1430.81 168.404 1426.36 166.446 1421.39 166.446H1392.24C1382.38 166.511 1374.34 174.541 1374.34 184.398Z" fill="#F4F6F8"/>
<path d="M1434.59 195.174C1440.52 188.431 1439.86 178.161 1433.11 172.234C1426.36 166.307 1416.08 166.968 1410.14 173.711C1404.21 180.454 1404.87 190.725 1411.62 196.652C1418.37 202.579 1428.66 201.917 1434.59 195.174Z" fill="#F4F6F8"/>
<path d="M1409.83 184.398C1409.83 191.318 1415.45 196.932 1422.38 196.932C1422.57 196.932 1422.77 196.932 1423.03 196.932C1429.7 196.606 1434.93 191.122 1434.93 184.398C1434.93 177.674 1429.63 172.191 1423.03 171.864C1422.83 171.864 1422.64 171.864 1422.38 171.864C1415.45 171.864 1409.83 177.478 1409.83 184.398Z" fill="#1C427B"/>
<path d="M1423.03 171.93V196.932C1429.69 196.606 1434.92 191.122 1434.92 184.398C1434.92 177.74 1429.69 172.256 1423.03 171.93Z" fill="#1C427B"/>
<path d="M1422.38 190.208C1425.59 190.208 1428.19 187.607 1428.19 184.398C1428.19 181.19 1425.59 178.588 1422.38 178.588C1419.16 178.588 1416.56 181.19 1416.56 184.398C1416.56 187.607 1419.16 190.208 1422.38 190.208Z" fill="#1C427B"/>
<path d="M1291.07 169.775H1320.67C1325.58 169.775 1329.56 165.793 1329.56 160.897H1282.24C1282.18 165.793 1286.16 169.775 1291.07 169.775Z" fill="#1C427B"/>
<path d="M1226.56 167.36H1251.85C1255.45 167.36 1258.32 164.487 1258.32 160.897H1220.09C1220.09 164.487 1222.96 167.36 1226.56 167.36Z" fill="#1C427B"/>
<path d="M1282.89 132.435C1285.18 135.96 1288.19 139.485 1291.65 142.88H1313.16C1318.91 142.88 1323.61 138.245 1323.61 132.435H1282.89Z" fill="#1C427B"/>
<path d="M1286.95 108.281H1321.39C1326.3 108.281 1330.22 104.299 1330.22 99.4677C1330.22 94.5716 1326.23 90.6548 1321.39 90.6548H1286.95C1282.05 90.6548 1278.13 94.6369 1278.13 99.4677C1278.06 104.299 1282.05 108.281 1286.95 108.281Z" fill="#F4F6F8"/>
<path d="M1285.71 108.28H1322.64C1326.82 108.28 1330.22 104.886 1330.22 100.708C1330.22 96.5299 1326.82 93.1353 1322.64 93.1353H1285.71C1281.52 93.1353 1278.13 96.5299 1278.13 100.708C1278.06 104.886 1281.46 108.28 1285.71 108.28Z" fill="#30C1FF"/>
<path d="M1322.99 107.346C1327.38 106.678 1330.4 102.582 1329.73 98.1982C1329.06 93.8142 1324.96 90.8016 1320.57 91.4695C1316.18 92.1373 1313.17 96.2327 1313.84 100.617C1314.5 105.001 1318.6 108.013 1322.99 107.346Z" fill="#F4F6F8"/>
<path d="M1315.64 99.4024C1315.64 102.797 1318.39 105.604 1321.85 105.604C1321.98 105.604 1322.05 105.604 1322.18 105.604C1325.44 105.474 1328.06 102.732 1328.06 99.4024C1328.06 96.0731 1325.44 93.3965 1322.18 93.2007C1322.05 93.2007 1321.98 93.2007 1321.85 93.2007C1318.39 93.266 1315.64 96.0078 1315.64 99.4024Z" fill="#1C427B"/>
<path d="M1322.11 93.2661V105.604C1325.38 105.474 1328 102.732 1328 99.4025C1328 96.1385 1325.38 93.3967 1322.11 93.2661Z" fill="#1C427B"/>
<path d="M1318.91 99.4021C1318.91 100.969 1320.22 102.275 1321.79 102.275C1323.35 102.275 1324.66 100.969 1324.66 99.4021C1324.66 97.8354 1323.35 96.5298 1321.79 96.5298C1320.22 96.5298 1318.91 97.8354 1318.91 99.4021Z" fill="#1C427B"/>
<path d="M1285.96 86.4772H1299.56C1301.26 86.4772 1302.63 85.1063 1302.63 83.409C1302.63 81.7117 1301.26 80.3408 1299.56 80.3408H1285.96V86.4772Z" fill="#ECECEC"/>
<path d="M1583.81 152.541H1581.39C1579.04 152.541 1577.14 150.648 1577.14 148.298V137.462C1577.14 135.111 1579.04 133.218 1581.39 133.218H1583.81C1586.16 133.218 1588.06 135.111 1588.06 137.462H1587.08C1587.08 135.634 1585.64 134.197 1583.81 134.197H1581.39C1579.56 134.197 1578.12 135.699 1578.12 137.462V148.298C1578.12 150.126 1579.56 151.562 1581.39 151.562H1583.81C1585.64 151.562 1587.08 150.126 1587.08 148.298H1588.06C1588.06 150.648 1586.16 152.541 1583.81 152.541Z" fill="#1C427B"/>
<path d="M930.772 191.024C930.132 188.041 929.705 184.844 929.705 181.648C929.705 157.357 949.332 137.754 973.652 137.754C992.425 137.754 1008.53 149.58 1014.72 166.094C1017.28 165.454 1019.95 165.135 1022.72 165.135C1037.23 165.135 1049.49 174.617 1053.76 187.614C1055.47 187.082 1057.28 186.869 1059.09 186.869C1064.11 186.869 1068.59 188.786 1072 191.876C1075.95 185.803 1082.77 181.755 1090.56 181.755C1100.27 181.755 1108.48 188.041 1111.36 196.777C1113.6 195.392 1116.16 194.646 1118.93 194.646C1126.93 194.646 1133.33 198.268 1133.33 206.259C1133.33 206.898 1161.6 210.414 1161.49 211.053H1111.25H1104.64H1077.87H1069.87H1052.59H1040.43H1006.4H993.065H949.545H941.012H877.012C876.905 210.414 913.705 205.513 913.705 204.767C913.705 195.072 921.279 191.556 930.772 191.024Z" fill="#F4F6F8"/>
<path d="M923.732 86.4028C922.345 86.4028 921.172 87.5748 921.172 88.9598C921.172 90.3448 922.345 91.5167 923.732 91.5167C925.119 91.5167 926.292 90.3448 926.292 88.9598C926.292 87.5748 925.119 86.4028 923.732 86.4028Z" fill="#F4F6F8"/>
<path d="M915.412 86.4028C914.025 86.4028 912.852 87.5748 912.852 88.9598C912.852 90.3448 914.025 91.5167 915.412 91.5167C916.798 91.5167 917.972 90.3448 917.972 88.9598C917.972 87.5748 916.798 86.4028 915.412 86.4028Z" fill="#F4F6F8"/>
<path d="M907.732 86.4028C906.345 86.4028 905.172 87.5748 905.172 88.9598C905.172 90.3448 906.345 91.5167 907.732 91.5167C909.119 91.5167 910.292 90.3448 910.292 88.9598C910.292 87.5748 909.119 86.4028 907.732 86.4028Z" fill="#F4F6F8"/>
<path d="M896.639 86.4028H881.919C880.533 86.4028 879.359 87.5748 879.359 88.9598C879.359 90.3448 880.533 91.5167 881.919 91.5167H896.639C898.026 91.5167 899.199 90.3448 899.199 88.9598C899.199 87.5748 898.026 86.4028 896.639 86.4028Z" fill="#F4F6F8"/>
<path d="M195.091 86.4028C193.705 86.4028 192.531 87.5748 192.531 88.9598C192.531 90.3448 193.705 91.5167 195.091 91.5167C196.478 91.5167 197.651 90.3448 197.651 88.9598C197.651 87.5748 196.478 86.4028 195.091 86.4028Z" fill="#F4F6F8"/>
<path d="M187.412 86.4028C186.025 86.4028 184.852 87.5748 184.852 88.9598C184.852 90.3448 186.025 91.5167 187.412 91.5167C188.798 91.5167 189.972 90.3448 189.972 88.9598C189.972 87.5748 188.798 86.4028 187.412 86.4028Z" fill="#F4F6F8"/>
<path d="M176.319 86.4028H161.599C160.212 86.4028 159.039 87.5748 159.039 88.9598C159.039 90.3448 160.212 91.5167 161.599 91.5167H176.319C177.706 91.5167 178.879 90.3448 178.879 88.9598C178.879 87.5748 177.706 86.4028 176.319 86.4028Z" fill="#F4F6F8"/>
<path d="M600.103 228.844C601.517 228.844 602.663 227.7 602.663 226.287C602.663 224.875 601.517 223.73 600.103 223.73C598.689 223.73 597.543 224.875 597.543 226.287C597.543 227.7 598.689 228.844 600.103 228.844Z" fill="#F4F6F8"/>
<path d="M591.251 223.837C589.865 223.837 588.691 225.009 588.691 226.394C588.691 227.779 589.865 228.951 591.251 228.951C592.638 228.951 593.811 227.779 593.811 226.394C593.705 224.902 592.638 223.837 591.251 223.837Z" fill="#F4F6F8"/>
<path d="M621.759 213.609C620.373 213.609 619.199 214.781 619.199 216.166C619.199 217.551 620.373 218.723 621.759 218.723C623.146 218.723 624.319 217.551 624.319 216.166C624.319 214.675 623.253 213.609 621.759 213.609Z" fill="#F4F6F8"/>
<path d="M654.396 218.617C655.81 218.617 656.956 217.472 656.956 216.06C656.956 214.648 655.81 213.503 654.396 213.503C652.982 213.503 651.836 214.648 651.836 216.06C651.836 217.472 652.982 218.617 654.396 218.617Z" fill="#F4F6F8"/>
<path d="M645.651 213.609H630.931C629.544 213.609 628.371 214.781 628.371 216.166C628.371 217.551 629.544 218.723 630.931 218.723H645.651C647.038 218.723 648.211 217.551 648.211 216.166C648.211 214.675 647.038 213.609 645.651 213.609Z" fill="#F4F6F8"/>
<path d="M623.358 223.837H608.638C607.251 223.837 606.078 225.009 606.078 226.394C606.078 227.779 607.251 228.951 608.638 228.951H623.358C624.745 228.951 625.918 227.779 625.918 226.394C625.811 224.902 624.745 223.837 623.358 223.837Z" fill="#F4F6F8"/>
<path d="M881.919 420.188C880.533 420.188 879.359 421.359 879.359 422.744C879.359 424.129 880.533 425.301 881.919 425.301C883.306 425.301 884.479 424.129 884.479 422.744C884.479 421.253 883.306 420.188 881.919 420.188Z" fill="#F4F6F8"/>
<path d="M872.958 425.195C874.372 425.195 875.518 424.05 875.518 422.638C875.518 421.226 874.372 420.081 872.958 420.081C871.545 420.081 870.398 421.226 870.398 422.638C870.398 424.05 871.545 425.195 872.958 425.195Z" fill="#F4F6F8"/>
<path d="M905.065 420.188H890.345C888.959 420.188 887.785 421.359 887.785 422.744C887.785 424.129 888.959 425.301 890.345 425.301H905.065C906.452 425.301 907.625 424.129 907.625 422.744C907.625 421.253 906.452 420.188 905.065 420.188Z" fill="#F4F6F8"/>
<path d="M311.785 117.299C312.212 115.381 312.425 113.464 312.425 111.439C312.425 96.3109 300.159 84.1655 285.119 84.1655C273.385 84.1655 263.465 91.5167 259.519 101.851C257.919 101.425 256.212 101.212 254.505 101.212C245.545 101.212 237.865 107.071 235.199 115.168C234.132 114.849 233.065 114.636 231.892 114.636C228.799 114.636 226.025 115.807 223.892 117.725C221.439 113.89 217.172 111.439 212.372 111.439C206.292 111.439 201.172 115.381 199.359 120.815C197.972 119.962 196.372 119.536 194.665 119.536C189.759 119.536 185.705 121.774 185.705 126.781C185.705 127.207 168.105 129.338 168.105 129.764H199.465H203.625H220.265H225.279H236.052H243.625H264.745H273.065H300.159H305.492H345.279C345.279 129.338 322.452 126.248 322.452 125.822C322.452 119.749 317.759 117.512 311.785 117.299Z" fill="#F4F6F8"/>
<path d="M172.267 201.89C172.374 201.145 172.48 200.399 172.48 199.653C172.48 193.9 167.787 189.319 162.134 189.319C157.654 189.319 153.92 192.089 152.427 196.031C151.787 195.924 151.147 195.818 150.507 195.818C147.094 195.818 144.214 198.055 143.147 201.145C142.72 201.038 142.294 200.932 141.867 200.932C140.694 200.932 139.627 201.358 138.774 202.103C137.814 200.612 136.214 199.76 134.4 199.76C132.16 199.76 130.134 201.251 129.494 203.275C128.96 202.956 128.32 202.743 127.68 202.743C125.76 202.743 124.267 203.595 124.267 205.513C124.267 205.726 117.547 206.472 117.654 206.685H129.494H131.094H137.387H139.307H143.36H146.24H154.24H157.44H167.68H169.707H184.854C184.854 206.578 176.214 205.406 176.214 205.193C176.32 202.849 174.507 201.997 172.267 201.89Z" fill="#F4F6F8"/>
<path d="M758.188 146.384C758.508 144.786 758.721 143.188 758.721 141.59C758.721 129.018 748.588 118.897 736.001 118.897C726.295 118.897 717.975 124.97 714.775 133.599C713.495 133.28 712.108 133.067 710.615 133.067C703.148 133.067 696.748 137.967 694.615 144.679C693.761 144.466 692.801 144.253 691.841 144.253C689.281 144.253 686.935 145.212 685.121 146.81C683.095 143.614 679.575 141.59 675.521 141.59C670.508 141.59 666.241 144.786 664.748 149.367C663.575 148.621 662.295 148.302 660.908 148.302C656.748 148.302 653.441 150.219 653.441 154.268C653.441 154.587 638.828 156.399 638.828 156.718H664.855H668.268H682.135H686.295H695.255H701.548H719.148H726.081H748.588H752.961H786.028C786.028 156.399 767.041 153.842 767.041 153.522C767.041 148.515 763.095 146.703 758.188 146.384Z" fill="#F4F6F8"/>
</svg>
