<svg width="130" height="24" viewBox="0 0 130 24" fill="none" xmlns="http://www.w3.org/2000/svg">
    <g clip-path="url(#clip0_8970_7061)">
        <path
            d="M72.472 15.0352C72.7082 15.0352 72.9445 15.0352 73.2398 15.0941C73.4761 15.1531 73.7123 15.2121 73.9486 15.33C74.1848 15.4479 74.4211 15.5659 74.5983 15.6838C74.8345 15.8017 75.0117 15.9786 75.1889 16.1555C75.3661 16.3325 75.5433 16.5094 75.6614 16.7452C75.7796 16.9811 75.8977 17.158 76.0158 17.3939C76.134 17.6298 76.193 17.8656 76.2521 18.1015C76.3112 18.3374 76.3111 18.5732 76.3111 18.8681C76.3111 19.1629 76.3112 19.3398 76.2521 19.6347C76.193 19.8705 76.134 20.1064 76.0158 20.3423C75.8977 20.5782 75.7796 20.814 75.6614 20.9909C75.5433 21.2268 75.3661 21.4037 75.1889 21.5806C75.0117 21.7575 74.8345 21.9344 74.5983 22.0524C74.362 22.1703 74.1848 22.2882 73.9486 22.4062C73.7123 22.5241 73.4761 22.5831 73.2398 22.642C73.0036 22.701 72.7673 22.701 72.472 22.701C72.1767 22.701 71.9995 22.701 71.7041 22.642C71.4679 22.5831 71.2316 22.5241 70.9954 22.4062C70.7591 22.2882 70.5229 22.1703 70.3457 22.0524C70.1685 21.9344 69.9322 21.7575 69.755 21.5806C69.5778 21.4037 69.4006 21.2268 69.2825 20.9909C69.1644 20.7551 69.0463 20.5782 68.9281 20.3423C68.81 20.1064 68.7509 19.8705 68.6919 19.6347C68.6328 19.3988 68.6328 19.1629 68.6328 18.8681C68.6328 18.5732 68.6328 18.3963 68.6919 18.1015C68.7509 17.8656 68.81 17.6298 68.9281 17.3939C69.0463 17.158 69.1644 16.9221 69.2825 16.7452C69.4006 16.5094 69.5778 16.3325 69.755 16.1555C69.9322 15.9786 70.1094 15.8017 70.3457 15.6838C70.5819 15.5659 70.7591 15.4479 70.9954 15.33C71.2316 15.2121 71.4679 15.1531 71.7041 15.0941C71.9404 15.0352 72.2357 15.0352 72.472 15.0352Z"
            fill="#1A73E7" />
        <path d="M58.8871 8.01948L58.8281 7.48877C58.8871 7.66567 58.8871 7.84258 58.8871 8.01948Z" fill="#3C3F49" />
        <path
            d="M76.9031 1.71019C76.6669 1.47432 76.4897 1.29741 76.2534 1.12051L76.1944 1.06154C76.1353 1.00257 76.1353 1.00257 76.0762 1.00257C76.0172 0.943603 75.9581 0.943603 75.9581 0.943603C75.899 0.943603 75.899 0.884635 75.84 0.884635C74.8949 0.353922 73.8318 0.059082 72.8277 0.059082C71.292 0.059082 69.8154 0.648763 68.6342 1.76916L66.0944 4.30478L53.2775 0.294954H53.1594C53.1003 0.294954 53.0412 0.235986 52.9231 0.235986C52.8641 0.235986 52.805 0.235986 52.7459 0.235986C52.3325 0.235986 51.9781 0.41289 51.6828 0.707731L50.3243 2.064L59.302 11.0271L55.581 14.7421L49.7927 14.0935C49.7337 14.0935 49.6746 14.0935 49.6746 14.0935C49.4974 14.0935 49.3202 14.0935 49.143 14.2114C48.9658 14.2704 48.7296 14.3883 48.6114 14.5652L47.3711 15.8036L55.6401 24.0591L77.3756 2.2409C77.2575 2.064 77.0803 1.88709 76.9031 1.71019Z"
            fill="#3C3F49" />
        <path d="M129.998 4.4226V0H110.566V24H129.998V19.5774H115.173V14.2113H125.391V9.7887H115.173V4.4226H129.998Z"
            fill="#3C3F49" />
        <path d="M0 24H4.607V14.2113H14.8251V9.7887H4.607V4.4226H19.4321V0H0V24Z" fill="#3C3F49" />
        <path d="M28.587 0H24.0391V24H43.4711V19.5774H28.587V0Z" fill="#3C3F49" />
        <path
            d="M93.9709 10.2603V14.8598H100.822C100.468 15.7444 99.8773 16.5699 99.2276 17.2186C97.8692 18.5748 96.0382 19.4004 93.9709 19.4004C89.8955 19.4004 86.5289 16.0982 86.5289 11.9704C86.5289 9.90652 87.3558 8.07851 88.7142 6.72224C90.0727 5.36598 91.9037 4.54043 93.9709 4.54043C95.5657 4.54043 97.0423 5.07114 98.2826 5.89669L101.531 2.65345C99.4639 0.943375 96.806 -0.059082 93.9709 -0.059082C90.6634 -0.059082 87.6511 1.29718 85.4657 3.479C83.2803 5.66082 81.9219 8.66819 81.9219 11.9704C81.9219 18.5748 87.2967 23.9409 93.9119 23.9409C97.2195 23.9409 100.232 22.5847 102.417 20.4028C103.953 18.8697 105.075 16.9237 105.607 14.8009C105.843 13.8574 105.961 12.9139 105.961 11.9704C105.961 11.3807 105.902 10.791 105.843 10.2603H93.9709Z"
            fill="#3C3F49" />
    </g>
    <defs>
        <clipPath id="clip0_8970_7061">
            <rect width="130" height="24" fill="white" />
        </clipPath>
    </defs>
</svg>