<svg width="24" height="24" viewBox="0 0 24 24" fill="none" xmlns="http://www.w3.org/2000/svg">
    <path
        d="M19.4055 15.0034C19.5787 15.0034 19.7519 15.0034 19.9685 15.0467C20.1417 15.09 20.3149 15.1333 20.4882 15.22C20.6614 15.3066 20.8346 15.3932 20.9645 15.4799C21.1378 15.5665 21.2677 15.6965 21.3976 15.8264C21.5275 15.9564 21.6575 16.0864 21.7441 16.2596C21.8307 16.4329 21.9173 16.5629 22.0039 16.7362C22.0905 16.9094 22.1338 17.0827 22.1771 17.256C22.2204 17.4293 22.2204 17.6026 22.2204 17.8192C22.2204 18.0358 22.2204 18.1657 22.1771 18.3823C22.1338 18.5556 22.0905 18.7289 22.0039 18.9022C21.9173 19.0754 21.8307 19.2487 21.7441 19.3787C21.6575 19.552 21.5275 19.6819 21.3976 19.8119C21.2677 19.9418 21.1378 20.0718 20.9645 20.1584C20.7913 20.2451 20.6614 20.3317 20.4882 20.4184C20.3149 20.505 20.1417 20.5483 19.9685 20.5916C19.7952 20.635 19.622 20.635 19.4055 20.635C19.1889 20.635 19.059 20.635 18.8425 20.5916C18.6693 20.5483 18.496 20.505 18.3228 20.4184C18.1496 20.3317 17.9763 20.2451 17.8464 20.1584C17.7165 20.0718 17.5433 19.9418 17.4134 19.8119C17.2834 19.6819 17.1535 19.552 17.0669 19.3787C16.9803 19.2054 16.8937 19.0754 16.8071 18.9022C16.7204 18.7289 16.6771 18.5556 16.6338 18.3823C16.5905 18.209 16.5905 18.0358 16.5905 17.8192C16.5905 17.6026 16.5905 17.4726 16.6338 17.256C16.6771 17.0827 16.7204 16.9094 16.8071 16.7362C16.8937 16.5629 16.9803 16.3896 17.0669 16.2596C17.1535 16.0864 17.2834 15.9564 17.4134 15.8264C17.5433 15.6965 17.6732 15.5665 17.8464 15.4799C18.0197 15.3932 18.1496 15.3066 18.3228 15.22C18.496 15.1333 18.6693 15.09 18.8425 15.0467C19.0157 15.0034 19.2322 15.0034 19.4055 15.0034Z"
        fill="#fff" />
    <path
        d="M22.6535 5.21296C22.4803 5.03968 22.3504 4.90972 22.1772 4.77976L22.1339 4.73644C22.0906 4.69312 22.0906 4.69312 22.0472 4.69312C22.0039 4.6498 21.9606 4.6498 21.9606 4.6498C21.9173 4.6498 21.9173 4.60648 21.874 4.60648C21.1811 4.2166 20.4016 4 19.6654 4C18.5394 4 17.4567 4.4332 16.5906 5.25628L14.7283 7.11904L5.33071 4.17328H5.2441C5.20079 4.17328 5.15748 4.12996 5.07087 4.12996C5.02756 4.12996 4.98425 4.12996 4.94095 4.12996C4.6378 4.12996 4.37795 4.25992 4.16142 4.47652L3.16535 5.47288L9.74803 12.0575L7.01969 14.7867L2.77559 14.3102C2.73229 14.3102 2.68898 14.3102 2.68898 14.3102C2.55906 14.3102 2.42913 14.3102 2.29921 14.3968C2.16929 14.4401 1.99607 14.5268 1.90945 14.6567L1 15.5664L7.06299 21.6312L23 5.60284C22.9134 5.47288 22.7835 5.34292 22.6535 5.21296Z"
        fill="#fff" />
</svg>